<?xml version="1.0" encoding="UTF-8"?>
<!-- Generator: Adobe Illustrator 24.0.3, SVG Export Plug-In . SVG Version: 6.00 Build 0)  -->
<svg version="1.1" id="Livello_1" xmlns="http://www.w3.org/2000/svg" xmlns:xlink="http://www.w3.org/1999/xlink" x="0px" y="0px" viewBox="0 0 302.3 114.7" style="enable-background:new 0 0 302.3 114.7;" xml:space="preserve">
<style type="text/css">
	.st0{fill:#5AB279;}
</style>
<g>
	<g>
		<path class="st0" d="M164.5,87.3c0-0.2-0.1-0.3-0.3-0.3h-0.6v-1.5h1.7c0.7,0,0.9,0.3,0.9,0.9v3.2h4.3v-3.2c0-0.6,0.3-0.9,0.9-0.9    h1.7V87h-0.6c-0.2,0-0.3,0.1-0.3,0.3v7.8h-1.8v-4h-4.3v4h-1.8V87.3z"/>
		<path class="st0" d="M177,90.9l-2.3-3.6c-0.2-0.3-0.3-0.3-0.6-0.3h-0.3v-1.5h0.9c0.6,0,0.9,0.1,1.3,0.7l1.3,2.1    c0.3,0.6,0.6,1.1,0.6,1.1h0c0,0,0.2-0.5,0.6-1.1l1.3-2.1c0.4-0.6,0.6-0.7,1.3-0.7h0.9V87h-0.3c-0.3,0-0.4,0.1-0.6,0.3l-2.3,3.6    v4.2H177V90.9z"/>
		<path class="st0" d="M183.5,87h-0.9v-1.5h3.9c3,0,4.9,1.8,4.9,4.8c0,3-2,4.8-4.9,4.8h-2.1c-0.7,0-0.9-0.3-0.9-0.9V87z M185.5,93.6    h0.9c1.9,0,3.2-1.2,3.2-3.3c0-2.1-1.3-3.3-3.2-3.3h-1.2v6.3C185.2,93.5,185.4,93.6,185.5,93.6z"/>
		<path class="st0" d="M193.2,87h-0.9v-1.5h4.3c1.8,0,3,1.1,3,2.9c0,1.7-1.2,2.5-1.6,2.5v0c0,0,0.3,0.1,0.5,0.5l0.9,1.9    c0.2,0.3,0.4,0.3,0.7,0.3h0.2v1.5h-0.9c-0.7,0-1-0.1-1.4-0.7l-1.2-2.4c-0.2-0.4-0.4-0.4-0.9-0.4H195v3.6h-1.8V87z M196.4,90    c0.9,0,1.4-0.6,1.4-1.5c0-0.9-0.5-1.5-1.4-1.5H195v3H196.4z"/>
		<path class="st0" d="M205.9,85.4c2.9,0,5,2.2,5,4.9c0,2.8-2.2,5-5,5c-2.9,0-5-2.2-5-5C200.9,87.5,203,85.4,205.9,85.4z     M205.9,93.7c1.7,0,3.2-1.5,3.2-3.4c0-1.8-1.4-3.3-3.2-3.3s-3.2,1.4-3.2,3.3C202.7,92.2,204.1,93.7,205.9,93.7z"/>
		<path class="st0" d="M212.7,87h-0.9v-1.5h4.4c1.8,0,3.1,1.3,3.1,3.1c0,1.9-1.3,3.2-3.1,3.2h-1.8v3.3h-1.8V87z M215.9,90.3    c1,0,1.6-0.7,1.6-1.7c0-1-0.6-1.6-1.6-1.6h-1.5v3.3H215.9z"/>
		<path class="st0" d="M225,85.4c2.9,0,5,2.2,5,4.9c0,2.8-2.2,5-5,5c-2.9,0-5-2.2-5-5C220,87.5,222.1,85.4,225,85.4z M225,93.7    c1.7,0,3.2-1.5,3.2-3.4c0-1.8-1.4-3.3-3.2-3.3s-3.2,1.4-3.2,3.3C221.8,92.2,223.2,93.7,225,93.7z"/>
		<path class="st0" d="M230.9,93.6h0.6c0.2,0,0.3-0.1,0.3-0.3v-7.8h1.6l3.7,5.3c0.4,0.6,0.8,1.4,0.8,1.4h0c0,0-0.1-0.8-0.1-1.4v-4.4    c0-0.6,0.3-0.9,0.9-0.9h1.7V87h-0.6c-0.2,0-0.3,0.1-0.3,0.3v7.8H238l-3.7-5.3c-0.4-0.5-0.8-1.4-0.8-1.4h0c0,0,0.1,0.8,0.1,1.4v4.4    c0,0.7-0.3,0.9-0.9,0.9h-1.7V93.6z"/>
		<path class="st0" d="M241.4,93.6h1V87h-1v-1.5h3.6V87h-1v6.6h1v1.5h-3.6V93.6z"/>
		<path class="st0" d="M250.9,85.4c1.2,0,3.7,0.5,3.7,2.2v1.1H253V88c0-0.7-1.2-1-2-1c-1.7,0-3.1,1.2-3.1,3.2c0,1.9,1.4,3.4,3.2,3.4    c1.8,0,2.9-1.3,2.9-1.3l0.9,1.3c0,0-1.4,1.7-3.9,1.7c-3,0-5-2.2-5-5.1C246,87.5,248.1,85.4,250.9,85.4z"/>
		<path class="st0" d="M256.7,92.6c0,0,1,1.1,2.3,1.1c0.7,0,1.4-0.4,1.4-1.1c0-1.6-4.6-1.5-4.6-4.5c0-1.6,1.4-2.7,3.2-2.7    c1.1,0,2.9,0.5,2.9,1.9v0.9h-1.6v-0.4c0-0.4-0.6-0.7-1.3-0.7c-0.8,0-1.4,0.4-1.4,1c0,1.6,4.6,1.3,4.6,4.5c0,1.5-1.2,2.8-3.2,2.8    c-2.1,0-3.3-1.5-3.3-1.5L256.7,92.6z"/>
	</g>
	<g>
		<path class="st0" d="M269,93.7H286c3.9,0,3.9-6,0-6H269C265.1,87.6,265.1,93.7,269,93.7"/>
		<path class="st0" d="M92,93.7h62h3.6c3.9,0,3.9-6,0-6h-62H92C88.1,87.6,88.1,93.7,92,93.7"/>
	</g>
	<g>
		<path class="st0" d="M93.1,45.3c0-0.9-0.5-1.4-1.4-1.4h-2.5v-6.6h7.5c2.9,0,4.2,1.3,4.2,4.2v19.2c0,0.9,0.5,1.4,1.4,1.4h2.5v6.6    h-7.5c-2.9,0-4.2-1.2-4.2-4.2V45.3z M93.5,25h6.8v7.2h-6.8V25z"/>
		<path class="st0" d="M122.6,36.5c6.9,0,9.1,3.8,9.1,3.8h0.1c0,0-0.1-0.8-0.1-1.8V33c0-0.9-0.5-1.4-1.4-1.4h-2.5V25h7.5    c2.9,0,4.2,1.3,4.2,4.2v31.5c0,0.9,0.5,1.4,1.4,1.4h2.4v6.6h-7.2c-2.9,0-3.9-1.4-3.9-3.2c0-0.7,0-1.2,0-1.2h-0.1    c0,0-2.6,5.1-9.9,5.1c-8.6,0-14.1-6.7-14.1-16.4C108.2,43,114.2,36.5,122.6,36.5z M132,52.9c0-4.9-2.5-9.6-7.8-9.6    c-4.3,0-7.9,3.5-7.9,9.7c0,6,3.2,9.8,7.8,9.8C128.1,62.8,132,59.8,132,52.9z"/>
		<path class="st0" d="M149.9,45.3c0-0.9-0.5-1.4-1.4-1.4h-2.5v-6.6h7.2c2.8,0,4.2,1.2,4.2,3.8v1.8c0,1.2-0.1,2-0.1,2h0.1    c1.4-4.5,5.2-8,10-8c0.7,0,1.4,0.1,1.4,0.1v7.7c0,0-0.8-0.1-1.9-0.1c-3.3,0-7.2,1.9-8.6,6.6c-0.4,1.5-0.7,3.3-0.7,5.1v12.4h-7.8    V45.3z"/>
		<path class="st0" d="M188.5,36.5c9.7,0,17.4,6.8,17.4,16.4c0,9.6-7.7,16.4-17.4,16.4c-9.6,0-17.3-6.8-17.3-16.4    C171.2,43.3,178.9,36.5,188.5,36.5z M188.5,62.7c5.1,0,9.4-3.9,9.4-9.8c0-5.8-4.3-9.8-9.4-9.8c-5.1,0-9.4,4-9.4,9.8    C179.1,58.8,183.4,62.7,188.5,62.7z"/>
	</g>
	<g>
		<path class="st0" d="M213.1,30.4c0-0.9-0.5-1.4-1.4-1.4h-2.6v-3.6h4.4c2.7,0,3.8,1.1,3.8,3.7v34.5c0,0.9,0.5,1.4,1.4,1.4h2.6v3.6    h-4.4c-2.7,0-3.8-1.1-3.8-3.7V30.4z"/>
		<path class="st0" d="M244.5,49.6h1.7v-0.4c0-6.5-2.4-8.7-8.1-8.7c-1.5,0-6.1,0.4-6.1,2.7v2h-4v-2.9c0-4.3,7.4-5.2,10.2-5.2    c9.9,0,12.2,5.2,12.2,11.9v14.8c0,0.9,0.5,1.4,1.4,1.4h2.6v3.6h-4.3c-2.7,0-3.7-1.2-3.7-3.7c0-1.4,0.1-2.3,0.1-2.3h-0.1    c0.1,0-2.5,6.7-10.3,6.7c-5.2,0-10.6-3-10.6-9.2C225.4,49.9,239.1,49.6,244.5,49.6z M236.7,65.8c5.9,0,9.5-6.1,9.5-11.5v-1.4h-1.8    c-4.9,0-14.7,0.1-14.7,7.1C229.8,62.8,232.1,65.8,236.7,65.8z"/>
		<path class="st0" d="M260.9,30.4c0-0.9-0.5-1.4-1.4-1.4H257v-3.6h4.4c2.7,0,3.8,1.1,3.8,3.7v11.2c0,1.4-0.1,2.5-0.1,2.5h0.1    c0,0,2.6-5.9,10.6-5.9c8.4,0,13.6,6.6,13.6,16.2c0,9.8-5.9,16.2-14.1,16.2c-7.4,0-10.2-6-10.2-6h-0.1c0,0,0.1,1,0.1,2.5v2.7h-4.1    V30.4z M274.9,65.6c5.5,0,10-4.6,10-12.5c0-7.6-4.1-12.4-9.9-12.4c-5.2,0-10.1,3.7-10.1,12.5C265,59.4,268.2,65.6,274.9,65.6z"/>
	</g>
	<g>
		<path class="st0" d="M61,50.9V25.7c0-1.9-2.9-1.9-2.9,0v25.7c0,0.2,0,0.5,0.1,0.7c0,0.1,0.1,0.1,0.1,0.2c0.1,0.1,0.1,0.1,0.2,0.2    C66.6,60,70,71.3,67.8,82c-1.9,9.2-8.2,16.9-16.6,21.1c-8.4,4.2-18.8,4.2-27.4,0.5C15.2,99.8,8.9,92.1,6.6,83.1    c-2.9-10.9,0.8-22.9,9-30.6c0.1-0.1,0.1-0.2,0.2-0.2c0-0.1,0.1-0.1,0.1-0.2c0.1-0.2,0.2-0.5,0.1-0.7V25.7c0-1.9-2.9-1.9-2.9,0    v25.2c-14.4,13.9-13.5,38,2,50.7c14.4,11.7,36.6,9.5,48.5-4.5C74.9,83.7,73.5,63,61,50.9z"/>
		<path class="st0" d="M29.2,89.5c8.1,4.5,18.4,0.9,22.6-7.1c1.8-3.5,2.2-7.8,1.2-11.7c-1.4-5.3-5.8-8.3-8.9-12.5    c-1-1.3-0.9-2.8-0.9-4.4v-6v-41c0-1.9-2.9-1.9-2.9,0v29.6v16.3c0,0.9,0,1.7,0,2.6c0,4.7,4.7,7.7,7.3,11.1c6.4,8.3,1.8,20.2-8.6,22    c-9.9,1.7-17.6-8.4-14.9-17.5c0.8-2.8,2.8-5.1,4.8-7.2c1.6-1.7,3.6-3.4,4.4-5.6c0.5-1.4,0.6-2.7,0.6-4.1V39.3V6.9    c0-1.9-2.9-1.9-2.9,0v29.6v16.3c0,0.9,0,1.7,0,2.6c0,2.3-1.8,3.9-3.3,5.5c-1.9,2-3.7,4-5.1,6.4C18,75.1,21.5,85.2,29.2,89.5z"/>
		<path class="st0" d="M30,75.1c0,3.9,3.2,7,7.1,7c3.9,0,7.1-3.1,7.1-7c0-1.8-0.8-3.1-1.6-4.1L37,65l-5.5,6C30.8,72,30,73.4,30,75.1    z M33.6,72.8L37,69l3.4,3.7c0.7,0.9,1,1.6,1,2.4c0,2.4-2,4.3-4.4,4.3c-2.4,0-4.4-1.9-4.4-4.3C32.7,74.3,33,73.6,33.6,72.8z"/>
		<path class="st0" d="M13.1,84.4c3.8,9.6,13.5,16.1,23.9,15.9c0,0,0,0,0,0c10.2,0.2,19.7-6.1,23.6-15.4C65.3,73.7,60.9,61.7,52,54    V16.3c0-1.9-2.9-1.9-2.9,0v38.3c0,0,0,0,0,0.1c0,0.1,0,0.2,0.1,0.4c0,0.1,0.1,0.2,0.1,0.3c0,0,0,0,0,0c0.1,0.2,0.2,0.4,0.4,0.6    c8.1,6.8,12.2,17.1,8.5,27.3C55,91.7,46.1,97.5,36.9,97.4c0,0,0,0,0,0c-9.1,0.1-17.5-5.5-21-13.8c-4.3-10.2,0.2-21,8.3-27.8    c0.2-0.2,0.3-0.4,0.4-0.6c0,0,0,0,0,0c0-0.1,0.1-0.2,0.1-0.3c0-0.1,0.1-0.2,0.1-0.4c0,0,0,0,0-0.1V16.3c0-1.9-2.9-1.9-2.9,0V54    C13.1,61.6,8.7,73.3,13.1,84.4z"/>
	</g>
	<g>
		<path class="st0" d="M294.1,35.9c-3,0-5.4-2.4-5.4-5.3s2.4-5.3,5.4-5.3c3,0,5.4,2.4,5.4,5.3S297.1,35.9,294.1,35.9z M294.1,26.1    c-2.5,0-4.6,2-4.6,4.5s2,4.5,4.6,4.5c2.5,0,4.6-2,4.6-4.5S296.6,26.1,294.1,26.1z"/>
	</g>
	<g>
		<path class="st0" d="M291.9,29.3h-0.8c-0.1,0-0.1,0-0.1,0.1v0.2h-0.4v-0.4c0-0.3,0.1-0.4,0.4-0.4h2.2c0.3,0,0.4,0.1,0.4,0.4v0.4    h-0.4v-0.2c0-0.1,0-0.1-0.1-0.1h-0.8v3.1h-0.5V29.3z M293.6,31.9h0.2c0.1,0,0.1,0,0.1-0.1l0.2-3h0.4l0.9,2    c0.1,0.2,0.1,0.3,0.1,0.3h0c0,0,0-0.2,0.1-0.3l0.9-2h0.4l0.2,3c0,0.1,0,0.1,0.1,0.1h0.2v0.4h-0.3c-0.3,0-0.4-0.1-0.4-0.4l-0.2-2    c0-0.1,0-0.2,0-0.2h0l-0.9,1.9h-0.4l-0.9-1.9h0c0,0,0,0.1,0,0.2l-0.2,2c0,0.3-0.1,0.4-0.4,0.4h-0.3V31.9z"/>
	</g>
</g>
</svg>